[37m2026-04-29 20:44:34.883[39m[0m[0m	[32m[1mDEBUG[22m[39m[0m[0m	[37mnative:1[39m[0m[0m[1m[37m	Pochi[39m[22m[0m[0m	pochi v0.6.8
[37m2026-04-29 20:44:35.109[39m[0m[0m	[32m[1mDEBUG[22m[39m[0m[0m	[37m$bunfs/root/pochi:519633[39m[0m[0m[1m[37m	loadAgents[39m[22m[0m[0m	Loaded 6 custom agents (6 valid, 0 invalid)
[37m2026-04-29 20:44:35.112[39m[0m[0m	[32m[1mDEBUG[22m[39m[0m[0m	[37m$bunfs/root/pochi:519634[39m[0m[0m[1m[37m	loadSkills[39m[22m[0m[0m	Loaded 2 skills (2 valid, 0 invalid)
[37m2026-04-29 20:44:35.538[39m[0m[0m	[32m[1mDEBUG[22m[39m[0m[0m	[37m$bunfs/root/pochi:416517[39m[0m[0m[1m[37m	MCPHub[39m[22m[0m[0m	MCP servers configuration changed via signal:
[37m2026-04-29 20:44:35.539[39m[0m[0m	[32m[1mDEBUG[22m[39m[0m[0m	[37m$bunfs/root/pochi:416629[39m[0m[0m[1m[37m	MCPHub[39m[22m[0m[0m	Build MCPHub Status
[37m2026-04-29 20:44:35.855[39m[0m[0m	[32m[1mDEBUG[22m[39m[0m[0m	[37mnative:7[39m[0m[0m[1m[37m	Pochi[39m[22m[0m[0m	Starting task runner...
[37m2026-04-29 20:44:36.059[39m[0m[0m	[32m[1mDEBUG[22m[39m[0m[0m	[37m$bunfs/root/pochi:507614[39m[0m[0m[1m[37m	generateTaskTitle[39m[22m[0m[0m	Generating task title, old: null, new: You are a software tester assigned to verify a test case using the agent browser.
[37m2026-04-29 20:44:55.597[39m[0m[0m	[32m[1mDEBUG[22m[39m[0m[0m	[37m$bunfs/root/pochi:507614[39m[0m[0m[1m[37m	generateTaskTitle[39m[22m[0m[0m	Generating task title, old: You are a software tester assigned to verify a test case using the agent browser., new: Verify sequential display of streamed text chunks using httpBatchStreamLink
[37m2026-04-29 20:44:55.609[39m[0m[0m	[32m[1mDEBUG[22m[39m[0m[0m	[37m$bunfs/root/pochi:507614[39m[0m[0m[1m[37m	generateTaskTitle[39m[22m[0m[0m	Generating task title, old: null, new: Navigate to http://localhost:3000.
[37m2026-04-29 20:45:13.066[39m[0m[0m	[32m[1mDEBUG[22m[39m[0m[0m	[37m$bunfs/root/pochi:507614[39m[0m[0m[1m[37m	generateTaskTitle[39m[22m[0m[0m	Generating task title, old: Navigate to http://localhost:3000., new: Verify streaming functionality at localhost 3000 using httpBatchStreamLink and AsyncGenerator
[37m2026-04-29 20:45:25.555[39m[0m[0m	[32m[1mDEBUG[22m[39m[0m[0m	[37m$bunfs/root/pochi:518560[39m[0m[0m[1m[37m	newTask[39m[22m[0m[0m	Browser stream webSocket connected.
[37m2026-04-29 20:45:25.574[39m[0m[0m	[32m[1mDEBUG[22m[39m[0m[0m	[37mnative:7[39m[0m[0m[1m[37m	MjpegToMp4[39m[22m[0m[0m	Saved frame 0: 1777495525.573
[37m2026-04-29 20:45:43.744[39m[0m[0m	[32m[1mDEBUG[22m[39m[0m[0m	[37mnative:7[39m[0m[0m[1m[37m	MjpegToMp4[39m[22m[0m[0m	Saved frame 1: 1777495543.742
[37m2026-04-29 20:45:43.877[39m[0m[0m	[32m[1mDEBUG[22m[39m[0m[0m	[37mnative:7[39m[0m[0m[1m[37m	MjpegToMp4[39m[22m[0m[0m	Saved frame 2: 1777495543.876
[37m2026-04-29 20:45:43.994[39m[0m[0m	[32m[1mDEBUG[22m[39m[0m[0m	[37mnative:7[39m[0m[0m[1m[37m	MjpegToMp4[39m[22m[0m[0m	Saved frame 3: 1777495543.992
[37m2026-04-29 20:45:44.123[39m[0m[0m	[32m[1mDEBUG[22m[39m[0m[0m	[37mnative:7[39m[0m[0m[1m[37m	MjpegToMp4[39m[22m[0m[0m	Saved frame 4: 1777495544.122
[37m2026-04-29 20:45:44.233[39m[0m[0m	[32m[1mDEBUG[22m[39m[0m[0m	[37mnative:7[39m[0m[0m[1m[37m	MjpegToMp4[39m[22m[0m[0m	Saved frame 5: 1777495544.232
[37m2026-04-29 20:45:44.357[39m[0m[0m	[32m[1mDEBUG[22m[39m[0m[0m	[37mnative:7[39m[0m[0m[1m[37m	MjpegToMp4[39m[22m[0m[0m	Saved frame 6: 1777495544.357
[37m2026-04-29 20:45:44.473[39m[0m[0m	[32m[1mDEBUG[22m[39m[0m[0m	[37mnative:7[39m[0m[0m[1m[37m	MjpegToMp4[39m[22m[0m[0m	Saved frame 7: 1777495544.473
[37m2026-04-29 20:45:44.595[39m[0m[0m	[32m[1mDEBUG[22m[39m[0m[0m	[37mnative:7[39m[0m[0m[1m[37m	MjpegToMp4[39m[22m[0m[0m	Saved frame 8: 1777495544.595
[37m2026-04-29 20:45:44.714[39m[0m[0m	[32m[1mDEBUG[22m[39m[0m[0m	[37mnative:7[39m[0m[0m[1m[37m	MjpegToMp4[39m[22m[0m[0m	Saved frame 9: 1777495544.714
[37m2026-04-29 20:45:44.835[39m[0m[0m	[32m[1mDEBUG[22m[39m[0m[0m	[37mnative:7[39m[0m[0m[1m[37m	MjpegToMp4[39m[22m[0m[0m	Saved frame 10: 1777495544.835
[37m2026-04-29 20:45:44.956[39m[0m[0m	[32m[1mDEBUG[22m[39m[0m[0m	[37mnative:7[39m[0m[0m[1m[37m	MjpegToMp4[39m[22m[0m[0m	Saved frame 11: 1777495544.956
[37m2026-04-29 20:45:45.078[39m[0m[0m	[32m[1mDEBUG[22m[39m[0m[0m	[37mnative:7[39m[0m[0m[1m[37m	MjpegToMp4[39m[22m[0m[0m	Saved frame 12: 1777495545.078
[37m2026-04-29 20:45:45.198[39m[0m[0m	[32m[1mDEBUG[22m[39m[0m[0m	[37mnative:7[39m[0m[0m[1m[37m	MjpegToMp4[39m[22m[0m[0m	Saved frame 13: 1777495545.197
[37m2026-04-29 20:45:45.318[39m[0m[0m	[32m[1mDEBUG[22m[39m[0m[0m	[37mnative:7[39m[0m[0m[1m[37m	MjpegToMp4[39m[22m[0m[0m	Saved frame 14: 1777495545.318
[37m2026-04-29 20:45:45.438[39m[0m[0m	[32m[1mDEBUG[22m[39m[0m[0m	[37mnative:7[39m[0m[0m[1m[37m	MjpegToMp4[39m[22m[0m[0m	Saved frame 15: 1777495545.437
[37m2026-04-29 20:45:45.560[39m[0m[0m	[32m[1mDEBUG[22m[39m[0m[0m	[37mnative:7[39m[0m[0m[1m[37m	MjpegToMp4[39m[22m[0m[0m	Saved frame 16: 1777495545.559
[37m2026-04-29 20:45:45.679[39m[0m[0m	[32m[1mDEBUG[22m[39m[0m[0m	[37mnative:7[39m[0m[0m[1m[37m	MjpegToMp4[39m[22m[0m[0m	Saved frame 17: 1777495545.678
[37m2026-04-29 20:45:45.802[39m[0m[0m	[32m[1mDEBUG[22m[39m[0m[0m	[37mnative:7[39m[0m[0m[1m[37m	MjpegToMp4[39m[22m[0m[0m	Saved frame 18: 1777495545.802
[37m2026-04-29 20:45:45.921[39m[0m[0m	[32m[1mDEBUG[22m[39m[0m[0m	[37mnative:7[39m[0m[0m[1m[37m	MjpegToMp4[39m[22m[0m[0m	Saved frame 19: 1777495545.921
[37m2026-04-29 20:45:46.040[39m[0m[0m	[32m[1mDEBUG[22m[39m[0m[0m	[37mnative:7[39m[0m[0m[1m[37m	MjpegToMp4[39m[22m[0m[0m	Saved frame 20: 1777495546.04
[37m2026-04-29 20:45:46.162[39m[0m[0m	[32m[1mDEBUG[22m[39m[0m[0m	[37mnative:7[39m[0m[0m[1m[37m	MjpegToMp4[39m[22m[0m[0m	Saved frame 21: 1777495546.162
[37m2026-04-29 20:45:46.298[39m[0m[0m	[32m[1mDEBUG[22m[39m[0m[0m	[37mnative:7[39m[0m[0m[1m[37m	MjpegToMp4[39m[22m[0m[0m	Saved frame 22: 1777495546.296
[37m2026-04-29 20:45:46.402[39m[0m[0m	[32m[1mDEBUG[22m[39m[0m[0m	[37mnative:7[39m[0m[0m[1m[37m	MjpegToMp4[39m[22m[0m[0m	Saved frame 23: 1777495546.402
[37m2026-04-29 20:45:46.523[39m[0m[0m	[32m[1mDEBUG[22m[39m[0m[0m	[37mnative:7[39m[0m[0m[1m[37m	MjpegToMp4[39m[22m[0m[0m	Saved frame 24: 1777495546.522
[37m2026-04-29 20:45:46.646[39m[0m[0m	[32m[1mDEBUG[22m[39m[0m[0m	[37mnative:7[39m[0m[0m[1m[37m	MjpegToMp4[39m[22m[0m[0m	Saved frame 25: 1777495546.646
[37m2026-04-29 20:46:15.387[39m[0m[0m	[32m[1mDEBUG[22m[39m[0m[0m	[37mnative:7[39m[0m[0m[1m[37m	MjpegToMp4[39m[22m[0m[0m	Saved frame 26: 1777495575.386
[37m2026-04-29 20:46:15.404[39m[0m[0m	[32m[1mDEBUG[22m[39m[0m[0m	[37mnative:7[39m[0m[0m[1m[37m	MjpegToMp4[39m[22m[0m[0m	Saved frame 27: 1777495575.404
[37m2026-04-29 20:46:15.591[39m[0m[0m	[32m[1mDEBUG[22m[39m[0m[0m	[37mnative:7[39m[0m[0m[1m[37m	MjpegToMp4[39m[22m[0m[0m	Saved frame 28: 1777495575.587
[37m2026-04-29 20:46:15.720[39m[0m[0m	[32m[1mDEBUG[22m[39m[0m[0m	[37mnative:7[39m[0m[0m[1m[37m	MjpegToMp4[39m[22m[0m[0m	Saved frame 29: 1777495575.718
[37m2026-04-29 20:46:15.850[39m[0m[0m	[32m[1mDEBUG[22m[39m[0m[0m	[37mnative:7[39m[0m[0m[1m[37m	MjpegToMp4[39m[22m[0m[0m	Saved frame 30: 1777495575.85
[37m2026-04-29 20:46:15.972[39m[0m[0m	[32m[1mDEBUG[22m[39m[0m[0m	[37mnative:7[39m[0m[0m[1m[37m	MjpegToMp4[39m[22m[0m[0m	Saved frame 31: 1777495575.971
[37m2026-04-29 20:46:16.090[39m[0m[0m	[32m[1mDEBUG[22m[39m[0m[0m	[37mnative:7[39m[0m[0m[1m[37m	MjpegToMp4[39m[22m[0m[0m	Saved frame 32: 1777495576.088
[37m2026-04-29 20:46:16.205[39m[0m[0m	[32m[1mDEBUG[22m[39m[0m[0m	[37mnative:7[39m[0m[0m[1m[37m	MjpegToMp4[39m[22m[0m[0m	Saved frame 33: 1777495576.204
[37m2026-04-29 20:46:16.323[39m[0m[0m	[32m[1mDEBUG[22m[39m[0m[0m	[37mnative:7[39m[0m[0m[1m[37m	MjpegToMp4[39m[22m[0m[0m	Saved frame 34: 1777495576.323
[37m2026-04-29 20:46:16.443[39m[0m[0m	[32m[1mDEBUG[22m[39m[0m[0m	[37mnative:7[39m[0m[0m[1m[37m	MjpegToMp4[39m[22m[0m[0m	Saved frame 35: 1777495576.442
[37m2026-04-29 20:46:16.562[39m[0m[0m	[32m[1mDEBUG[22m[39m[0m[0m	[37mnative:7[39m[0m[0m[1m[37m	MjpegToMp4[39m[22m[0m[0m	Saved frame 36: 1777495576.562
[37m2026-04-29 20:46:16.685[39m[0m[0m	[32m[1mDEBUG[22m[39m[0m[0m	[37mnative:7[39m[0m[0m[1m[37m	MjpegToMp4[39m[22m[0m[0m	Saved frame 37: 1777495576.685
[37m2026-04-29 20:46:16.801[39m[0m[0m	[32m[1mDEBUG[22m[39m[0m[0m	[37mnative:7[39m[0m[0m[1m[37m	MjpegToMp4[39m[22m[0m[0m	Saved frame 38: 1777495576.801
[37m2026-04-29 20:46:16.921[39m[0m[0m	[32m[1mDEBUG[22m[39m[0m[0m	[37mnative:7[39m[0m[0m[1m[37m	MjpegToMp4[39m[22m[0m[0m	Saved frame 39: 1777495576.921
[37m2026-04-29 20:46:17.042[39m[0m[0m	[32m[1mDEBUG[22m[39m[0m[0m	[37mnative:7[39m[0m[0m[1m[37m	MjpegToMp4[39m[22m[0m[0m	Saved frame 40: 1777495577.041
[37m2026-04-29 20:46:17.162[39m[0m[0m	[32m[1mDEBUG[22m[39m[0m[0m	[37mnative:7[39m[0m[0m[1m[37m	MjpegToMp4[39m[22m[0m[0m	Saved frame 41: 1777495577.161
[37m2026-04-29 20:46:17.283[39m[0m[0m	[32m[1mDEBUG[22m[39m[0m[0m	[37mnative:7[39m[0m[0m[1m[37m	MjpegToMp4[39m[22m[0m[0m	Saved frame 42: 1777495577.283
[37m2026-04-29 20:46:17.408[39m[0m[0m	[32m[1mDEBUG[22m[39m[0m[0m	[37mnative:7[39m[0m[0m[1m[37m	MjpegToMp4[39m[22m[0m[0m	Saved frame 43: 1777495577.407
[37m2026-04-29 20:46:17.523[39m[0m[0m	[32m[1mDEBUG[22m[39m[0m[0m	[37mnative:7[39m[0m[0m[1m[37m	MjpegToMp4[39m[22m[0m[0m	Saved frame 44: 1777495577.523
[37m2026-04-29 20:46:17.644[39m[0m[0m	[32m[1mDEBUG[22m[39m[0m[0m	[37mnative:7[39m[0m[0m[1m[37m	MjpegToMp4[39m[22m[0m[0m	Saved frame 45: 1777495577.644
[37m2026-04-29 20:46:17.764[39m[0m[0m	[32m[1mDEBUG[22m[39m[0m[0m	[37mnative:7[39m[0m[0m[1m[37m	MjpegToMp4[39m[22m[0m[0m	Saved frame 46: 1777495577.764
[37m2026-04-29 20:46:17.886[39m[0m[0m	[32m[1mDEBUG[22m[39m[0m[0m	[37mnative:7[39m[0m[0m[1m[37m	MjpegToMp4[39m[22m[0m[0m	Saved frame 47: 1777495577.885
[37m2026-04-29 20:46:18.006[39m[0m[0m	[32m[1mDEBUG[22m[39m[0m[0m	[37mnative:7[39m[0m[0m[1m[37m	MjpegToMp4[39m[22m[0m[0m	Saved frame 48: 1777495578.006
[37m2026-04-29 20:46:18.129[39m[0m[0m	[32m[1mDEBUG[22m[39m[0m[0m	[37mnative:7[39m[0m[0m[1m[37m	MjpegToMp4[39m[22m[0m[0m	Saved frame 49: 1777495578.128
[37m2026-04-29 20:46:18.246[39m[0m[0m	[32m[1mDEBUG[22m[39m[0m[0m	[37mnative:7[39m[0m[0m[1m[37m	MjpegToMp4[39m[22m[0m[0m	Saved frame 50: 1777495578.245
[37m2026-04-29 20:46:18.369[39m[0m[0m	[32m[1mDEBUG[22m[39m[0m[0m	[37mnative:7[39m[0m[0m[1m[37m	MjpegToMp4[39m[22m[0m[0m	Saved frame 51: 1777495578.369
[37m2026-04-29 20:46:18.488[39m[0m[0m	[32m[1mDEBUG[22m[39m[0m[0m	[37mnative:7[39m[0m[0m[1m[37m	MjpegToMp4[39m[22m[0m[0m	Saved frame 52: 1777495578.488
[37m2026-04-29 20:46:18.609[39m[0m[0m	[32m[1mDEBUG[22m[39m[0m[0m	[37mnative:7[39m[0m[0m[1m[37m	MjpegToMp4[39m[22m[0m[0m	Saved frame 53: 1777495578.608
[37m2026-04-29 20:46:18.728[39m[0m[0m	[32m[1mDEBUG[22m[39m[0m[0m	[37mnative:7[39m[0m[0m[1m[37m	MjpegToMp4[39m[22m[0m[0m	Saved frame 54: 1777495578.728
[37m2026-04-29 20:46:18.850[39m[0m[0m	[32m[1mDEBUG[22m[39m[0m[0m	[37mnative:7[39m[0m[0m[1m[37m	MjpegToMp4[39m[22m[0m[0m	Saved frame 55: 1777495578.85
[37m2026-04-29 20:46:18.969[39m[0m[0m	[32m[1mDEBUG[22m[39m[0m[0m	[37mnative:7[39m[0m[0m[1m[37m	MjpegToMp4[39m[22m[0m[0m	Saved frame 56: 1777495578.969
[37m2026-04-29 20:46:19.101[39m[0m[0m	[32m[1mDEBUG[22m[39m[0m[0m	[37mnative:7[39m[0m[0m[1m[37m	MjpegToMp4[39m[22m[0m[0m	Saved frame 57: 1777495579.1
[37m2026-04-29 20:46:33.769[39m[0m[0m	[32m[1mDEBUG[22m[39m[0m[0m	[37mnative:7[39m[0m[0m[1m[37m	MjpegToMp4[39m[22m[0m[0m	Saved frame 58: 1777495593.769
[37m2026-04-29 20:46:33.930[39m[0m[0m	[32m[1mDEBUG[22m[39m[0m[0m	[37mnative:7[39m[0m[0m[1m[37m	MjpegToMp4[39m[22m[0m[0m	Saved frame 59: 1777495593.927
[37m2026-04-29 20:46:34.031[39m[0m[0m	[32m[1mDEBUG[22m[39m[0m[0m	[37mnative:7[39m[0m[0m[1m[37m	MjpegToMp4[39m[22m[0m[0m	Saved frame 60: 1777495594.03
[37m2026-04-29 20:46:34.149[39m[0m[0m	[32m[1mDEBUG[22m[39m[0m[0m	[37mnative:7[39m[0m[0m[1m[37m	MjpegToMp4[39m[22m[0m[0m	Saved frame 61: 1777495594.148
[37m2026-04-29 20:46:34.273[39m[0m[0m	[32m[1mDEBUG[22m[39m[0m[0m	[37mnative:7[39m[0m[0m[1m[37m	MjpegToMp4[39m[22m[0m[0m	Saved frame 62: 1777495594.273
[37m2026-04-29 20:46:34.391[39m[0m[0m	[32m[1mDEBUG[22m[39m[0m[0m	[37mnative:7[39m[0m[0m[1m[37m	MjpegToMp4[39m[22m[0m[0m	Saved frame 63: 1777495594.391
[37m2026-04-29 20:46:34.513[39m[0m[0m	[32m[1mDEBUG[22m[39m[0m[0m	[37mnative:7[39m[0m[0m[1m[37m	MjpegToMp4[39m[22m[0m[0m	Saved frame 64: 1777495594.513
[37m2026-04-29 20:46:34.634[39m[0m[0m	[32m[1mDEBUG[22m[39m[0m[0m	[37mnative:7[39m[0m[0m[1m[37m	MjpegToMp4[39m[22m[0m[0m	Saved frame 65: 1777495594.633
[37m2026-04-29 20:46:34.753[39m[0m[0m	[32m[1mDEBUG[22m[39m[0m[0m	[37mnative:7[39m[0m[0m[1m[37m	MjpegToMp4[39m[22m[0m[0m	Saved frame 66: 1777495594.752
[37m2026-04-29 20:46:34.876[39m[0m[0m	[32m[1mDEBUG[22m[39m[0m[0m	[37mnative:7[39m[0m[0m[1m[37m	MjpegToMp4[39m[22m[0m[0m	Saved frame 67: 1777495594.876
[37m2026-04-29 20:46:34.992[39m[0m[0m	[32m[1mDEBUG[22m[39m[0m[0m	[37mnative:7[39m[0m[0m[1m[37m	MjpegToMp4[39m[22m[0m[0m	Saved frame 68: 1777495594.992
[37m2026-04-29 20:46:35.113[39m[0m[0m	[32m[1mDEBUG[22m[39m[0m[0m	[37mnative:7[39m[0m[0m[1m[37m	MjpegToMp4[39m[22m[0m[0m	Saved frame 69: 1777495595.113
[37m2026-04-29 20:46:35.234[39m[0m[0m	[32m[1mDEBUG[22m[39m[0m[0m	[37mnative:7[39m[0m[0m[1m[37m	MjpegToMp4[39m[22m[0m[0m	Saved frame 70: 1777495595.234
[37m2026-04-29 20:46:35.357[39m[0m[0m	[32m[1mDEBUG[22m[39m[0m[0m	[37mnative:7[39m[0m[0m[1m[37m	MjpegToMp4[39m[22m[0m[0m	Saved frame 71: 1777495595.356
[37m2026-04-29 20:46:35.474[39m[0m[0m	[32m[1mDEBUG[22m[39m[0m[0m	[37mnative:7[39m[0m[0m[1m[37m	MjpegToMp4[39m[22m[0m[0m	Saved frame 72: 1777495595.474
[37m2026-04-29 20:46:35.595[39m[0m[0m	[32m[1mDEBUG[22m[39m[0m[0m	[37mnative:7[39m[0m[0m[1m[37m	MjpegToMp4[39m[22m[0m[0m	Saved frame 73: 1777495595.594
[37m2026-04-29 20:46:35.714[39m[0m[0m	[32m[1mDEBUG[22m[39m[0m[0m	[37mnative:7[39m[0m[0m[1m[37m	MjpegToMp4[39m[22m[0m[0m	Saved frame 74: 1777495595.714
[37m2026-04-29 20:46:35.837[39m[0m[0m	[32m[1mDEBUG[22m[39m[0m[0m	[37mnative:7[39m[0m[0m[1m[37m	MjpegToMp4[39m[22m[0m[0m	Saved frame 75: 1777495595.836
[37m2026-04-29 20:46:35.956[39m[0m[0m	[32m[1mDEBUG[22m[39m[0m[0m	[37mnative:7[39m[0m[0m[1m[37m	MjpegToMp4[39m[22m[0m[0m	Saved frame 76: 1777495595.956
[37m2026-04-29 20:46:36.076[39m[0m[0m	[32m[1mDEBUG[22m[39m[0m[0m	[37mnative:7[39m[0m[0m[1m[37m	MjpegToMp4[39m[22m[0m[0m	Saved frame 77: 1777495596.075
[37m2026-04-29 20:46:36.200[39m[0m[0m	[32m[1mDEBUG[22m[39m[0m[0m	[37mnative:7[39m[0m[0m[1m[37m	MjpegToMp4[39m[22m[0m[0m	Saved frame 78: 1777495596.2
[37m2026-04-29 20:46:36.318[39m[0m[0m	[32m[1mDEBUG[22m[39m[0m[0m	[37mnative:7[39m[0m[0m[1m[37m	MjpegToMp4[39m[22m[0m[0m	Saved frame 79: 1777495596.318
[37m2026-04-29 20:46:36.440[39m[0m[0m	[32m[1mDEBUG[22m[39m[0m[0m	[37mnative:7[39m[0m[0m[1m[37m	MjpegToMp4[39m[22m[0m[0m	Saved frame 80: 1777495596.44
[37m2026-04-29 20:46:36.559[39m[0m[0m	[32m[1mDEBUG[22m[39m[0m[0m	[37mnative:7[39m[0m[0m[1m[37m	MjpegToMp4[39m[22m[0m[0m	Saved frame 81: 1777495596.559
[37m2026-04-29 20:46:36.681[39m[0m[0m	[32m[1mDEBUG[22m[39m[0m[0m	[37mnative:7[39m[0m[0m[1m[37m	MjpegToMp4[39m[22m[0m[0m	Saved frame 82: 1777495596.68
[37m2026-04-29 20:46:36.799[39m[0m[0m	[32m[1mDEBUG[22m[39m[0m[0m	[37mnative:7[39m[0m[0m[1m[37m	MjpegToMp4[39m[22m[0m[0m	Saved frame 83: 1777495596.799
[37m2026-04-29 20:46:36.920[39m[0m[0m	[32m[1mDEBUG[22m[39m[0m[0m	[37mnative:7[39m[0m[0m[1m[37m	MjpegToMp4[39m[22m[0m[0m	Saved frame 84: 1777495596.92
[37m2026-04-29 20:46:37.041[39m[0m[0m	[32m[1mDEBUG[22m[39m[0m[0m	[37mnative:7[39m[0m[0m[1m[37m	MjpegToMp4[39m[22m[0m[0m	Saved frame 85: 1777495597.04
[37m2026-04-29 20:46:37.160[39m[0m[0m	[32m[1mDEBUG[22m[39m[0m[0m	[37mnative:7[39m[0m[0m[1m[37m	MjpegToMp4[39m[22m[0m[0m	Saved frame 86: 1777495597.16
[37m2026-04-29 20:46:37.282[39m[0m[0m	[32m[1mDEBUG[22m[39m[0m[0m	[37mnative:7[39m[0m[0m[1m[37m	MjpegToMp4[39m[22m[0m[0m	Saved frame 87: 1777495597.282
[37m2026-04-29 20:46:51.371[39m[0m[0m	[32m[1mDEBUG[22m[39m[0m[0m	[37mnative:7[39m[0m[0m[1m[37m	MjpegToMp4[39m[22m[0m[0m	Saved frame 88: 1777495611.369
[37m2026-04-29 20:46:51.378[39m[0m[0m	[32m[1mDEBUG[22m[39m[0m[0m	[37mnative:7[39m[0m[0m[1m[37m	MjpegToMp4[39m[22m[0m[0m	Saved frame 89: 1777495611.377
[37m2026-04-29 20:46:51.504[39m[0m[0m	[32m[1mDEBUG[22m[39m[0m[0m	[37mnative:7[39m[0m[0m[1m[37m	MjpegToMp4[39m[22m[0m[0m	Saved frame 90: 1777495611.503
[37m2026-04-29 20:46:51.731[39m[0m[0m	[32m[1mDEBUG[22m[39m[0m[0m	[37mnative:7[39m[0m[0m[1m[37m	MjpegToMp4[39m[22m[0m[0m	Saved frame 91: 1777495611.703
[37m2026-04-29 20:46:51.779[39m[0m[0m	[32m[1mDEBUG[22m[39m[0m[0m	[37mnative:7[39m[0m[0m[1m[37m	MjpegToMp4[39m[22m[0m[0m	Saved frame 92: 1777495611.778
[37m2026-04-29 20:46:51.910[39m[0m[0m	[32m[1mDEBUG[22m[39m[0m[0m	[37mnative:7[39m[0m[0m[1m[37m	MjpegToMp4[39m[22m[0m[0m	Saved frame 93: 1777495611.908
[37m2026-04-29 20:46:52.022[39m[0m[0m	[32m[1mDEBUG[22m[39m[0m[0m	[37mnative:7[39m[0m[0m[1m[37m	MjpegToMp4[39m[22m[0m[0m	Saved frame 94: 1777495612.021
[37m2026-04-29 20:46:52.145[39m[0m[0m	[32m[1mDEBUG[22m[39m[0m[0m	[37mnative:7[39m[0m[0m[1m[37m	MjpegToMp4[39m[22m[0m[0m	Saved frame 95: 1777495612.144
[37m2026-04-29 20:46:52.277[39m[0m[0m	[32m[1mDEBUG[22m[39m[0m[0m	[37mnative:7[39m[0m[0m[1m[37m	MjpegToMp4[39m[22m[0m[0m	Saved frame 96: 1777495612.276
[37m2026-04-29 20:46:52.384[39m[0m[0m	[32m[1mDEBUG[22m[39m[0m[0m	[37mnative:7[39m[0m[0m[1m[37m	MjpegToMp4[39m[22m[0m[0m	Saved frame 97: 1777495612.384
[37m2026-04-29 20:46:52.508[39m[0m[0m	[32m[1mDEBUG[22m[39m[0m[0m	[37mnative:7[39m[0m[0m[1m[37m	MjpegToMp4[39m[22m[0m[0m	Saved frame 98: 1777495612.502
[37m2026-04-29 20:46:52.632[39m[0m[0m	[32m[1mDEBUG[22m[39m[0m[0m	[37mnative:7[39m[0m[0m[1m[37m	MjpegToMp4[39m[22m[0m[0m	Saved frame 99: 1777495612.632
[37m2026-04-29 20:46:52.747[39m[0m[0m	[32m[1mDEBUG[22m[39m[0m[0m	[37mnative:7[39m[0m[0m[1m[37m	MjpegToMp4[39m[22m[0m[0m	Saved frame 100: 1777495612.746
[37m2026-04-29 20:46:52.875[39m[0m[0m	[32m[1mDEBUG[22m[39m[0m[0m	[37mnative:7[39m[0m[0m[1m[37m	MjpegToMp4[39m[22m[0m[0m	Saved frame 101: 1777495612.875
[37m2026-04-29 20:46:52.993[39m[0m[0m	[32m[1mDEBUG[22m[39m[0m[0m	[37mnative:7[39m[0m[0m[1m[37m	MjpegToMp4[39m[22m[0m[0m	Saved frame 102: 1777495612.992
[37m2026-04-29 20:46:53.126[39m[0m[0m	[32m[1mDEBUG[22m[39m[0m[0m	[37mnative:7[39m[0m[0m[1m[37m	MjpegToMp4[39m[22m[0m[0m	Saved frame 103: 1777495613.124
[37m2026-04-29 20:46:53.249[39m[0m[0m	[32m[1mDEBUG[22m[39m[0m[0m	[37mnative:7[39m[0m[0m[1m[37m	MjpegToMp4[39m[22m[0m[0m	Saved frame 104: 1777495613.249
[37m2026-04-29 20:46:53.374[39m[0m[0m	[32m[1mDEBUG[22m[39m[0m[0m	[37mnative:7[39m[0m[0m[1m[37m	MjpegToMp4[39m[22m[0m[0m	Saved frame 105: 1777495613.374
[37m2026-04-29 20:46:53.477[39m[0m[0m	[32m[1mDEBUG[22m[39m[0m[0m	[37mnative:7[39m[0m[0m[1m[37m	MjpegToMp4[39m[22m[0m[0m	Saved frame 106: 1777495613.476
[37m2026-04-29 20:46:53.595[39m[0m[0m	[32m[1mDEBUG[22m[39m[0m[0m	[37mnative:7[39m[0m[0m[1m[37m	MjpegToMp4[39m[22m[0m[0m	Saved frame 107: 1777495613.594
[37m2026-04-29 20:46:53.725[39m[0m[0m	[32m[1mDEBUG[22m[39m[0m[0m	[37mnative:7[39m[0m[0m[1m[37m	MjpegToMp4[39m[22m[0m[0m	Saved frame 108: 1777495613.722
[37m2026-04-29 20:46:53.844[39m[0m[0m	[32m[1mDEBUG[22m[39m[0m[0m	[37mnative:7[39m[0m[0m[1m[37m	MjpegToMp4[39m[22m[0m[0m	Saved frame 109: 1777495613.843
[37m2026-04-29 20:46:53.964[39m[0m[0m	[32m[1mDEBUG[22m[39m[0m[0m	[37mnative:7[39m[0m[0m[1m[37m	MjpegToMp4[39m[22m[0m[0m	Saved frame 110: 1777495613.963
[37m2026-04-29 20:46:54.081[39m[0m[0m	[32m[1mDEBUG[22m[39m[0m[0m	[37mnative:7[39m[0m[0m[1m[37m	MjpegToMp4[39m[22m[0m[0m	Saved frame 111: 1777495614.08
[37m2026-04-29 20:46:54.224[39m[0m[0m	[32m[1mDEBUG[22m[39m[0m[0m	[37mnative:7[39m[0m[0m[1m[37m	MjpegToMp4[39m[22m[0m[0m	Saved frame 112: 1777495614.223
[37m2026-04-29 20:46:54.363[39m[0m[0m	[32m[1mDEBUG[22m[39m[0m[0m	[37mnative:7[39m[0m[0m[1m[37m	MjpegToMp4[39m[22m[0m[0m	Saved frame 113: 1777495614.361
[37m2026-04-29 20:46:54.449[39m[0m[0m	[32m[1mDEBUG[22m[39m[0m[0m	[37mnative:7[39m[0m[0m[1m[37m	MjpegToMp4[39m[22m[0m[0m	Saved frame 114: 1777495614.449
[37m2026-04-29 20:47:12.201[39m[0m[0m	[32m[1mDEBUG[22m[39m[0m[0m	[37m$bunfs/root/pochi:104654[39m[0m[0m[1m[37m	MjpegToMp4[39m[22m[0m[0m	[ffmpeg] start: ffmpeg -safe 0 -f concat -i /tmp/pochi-mjpeg2mp4-kPfu6d/frames.ffconcat -y -vcodec libx264 -filter:v scale=854:480:force_original_aspect_ratio=decrease,pad=854:480:(ow-iw)/2:(oh-ih)/2:color=black -pix_fmt yuv420p -movflags +faststart -preset veryfast -crf 23 -an -f mp4 /tmp/pochi-browser-agent-video-769fb2c4-0b2e-4cc9-9c52-b7e741aecd3a.mp4
[37m2026-04-29 20:47:12.257[39m[0m[0m	[32m[1mDEBUG[22m[39m[0m[0m	[37m$bunfs/root/pochi:104693[39m[0m[0m[1m[37m	MjpegToMp4[39m[22m[0m[0m	[ffmpeg] stderr: ffmpeg version 6.1.1-3ubuntu5 Copyright (c) 2000-2023 the FFmpeg developers
[37m2026-04-29 20:47:12.258[39m[0m[0m	[32m[1mDEBUG[22m[39m[0m[0m	[37m$bunfs/root/pochi:104693[39m[0m[0m[1m[37m	MjpegToMp4[39m[22m[0m[0m	[ffmpeg] stderr:   built with gcc 13 (Ubuntu 13.2.0-23ubuntu3)
[37m2026-04-29 20:47:12.258[39m[0m[0m	[32m[1mDEBUG[22m[39m[0m[0m	[37m$bunfs/root/pochi:104693[39m[0m[0m[1m[37m	MjpegToMp4[39m[22m[0m[0m	[ffmpeg] stderr:   configuration: --prefix=/usr --extra-version=3ubuntu5 --toolchain=hardened --libdir=/usr/lib/x86_64-linux-gnu --incdir=/usr/include/x86_64-linux-gnu --arch=amd64 --enable-gpl --disable-stripping --disable-omx --enable-gnutls --enable-libaom --enable-libass --enable-libbs2b --enable-libcaca --enable-libcdio --enable-libcodec2 --enable-libdav1d --enable-libflite --enable-libfontconfig --enable-libfreetype --enable-libfribidi --enable-libglslang --enable-libgme --enable-libgsm --enable-libharfbuzz --enable-libmp3lame --enable-libmysofa --enable-libopenjpeg --enable-libopenmpt --enable-libopus --enable-librubberband --enable-libshine --enable-libsnappy --enable-libsoxr --enable-libspeex --enable-libtheora --enable-libtwolame --enable-libvidstab --enable-libvorbis --enable-libvpx --enable-libwebp --enable-libx265 --enable-libxml2 --enable-libxvid --enable-libzimg --enable-openal --enable-opencl --enable-opengl --disable-sndio --enable-libvpl --disable-libmfx --enable-libdc1394 --enable-libdrm --enable-libiec61883 --enable-chromaprint --enable-frei0r --enable-ladspa --enable-libbluray --enable-libjack --enable-libpulse --enable-librabbitmq --enable-librist --enable-libsrt --enable-libssh --enable-libsvtav1 --enable-libx264 --enable-libzmq --enable-libzvbi --enable-lv2 --enable-sdl2 --enable-libplacebo --enable-librav1e --enable-pocketsphinx --enable-librsvg --enable-libjxl --enable-shared
[37m2026-04-29 20:47:12.258[39m[0m[0m	[32m[1mDEBUG[22m[39m[0m[0m	[37m$bunfs/root/pochi:104693[39m[0m[0m[1m[37m	MjpegToMp4[39m[22m[0m[0m	[ffmpeg] stderr:   libavutil      58. 29.100 / 58. 29.100
[37m2026-04-29 20:47:12.258[39m[0m[0m	[32m[1mDEBUG[22m[39m[0m[0m	[37m$bunfs/root/pochi:104693[39m[0m[0m[1m[37m	MjpegToMp4[39m[22m[0m[0m	[ffmpeg] stderr:   libavcodec     60. 31.102 / 60. 31.102
[37m2026-04-29 20:47:12.258[39m[0m[0m	[32m[1mDEBUG[22m[39m[0m[0m	[37m$bunfs/root/pochi:104693[39m[0m[0m[1m[37m	MjpegToMp4[39m[22m[0m[0m	[ffmpeg] stderr:   libavformat    60. 16.100 / 60. 16.100
[37m2026-04-29 20:47:12.258[39m[0m[0m	[32m[1mDEBUG[22m[39m[0m[0m	[37m$bunfs/root/pochi:104693[39m[0m[0m[1m[37m	MjpegToMp4[39m[22m[0m[0m	[ffmpeg] stderr:   libavdevice    60.  3.100 / 60.  3.100
[37m2026-04-29 20:47:12.258[39m[0m[0m	[32m[1mDEBUG[22m[39m[0m[0m	[37m$bunfs/root/pochi:104693[39m[0m[0m[1m[37m	MjpegToMp4[39m[22m[0m[0m	[ffmpeg] stderr:   libavfilter     9. 12.100 /  9. 12.100
[37m2026-04-29 20:47:12.259[39m[0m[0m	[32m[1mDEBUG[22m[39m[0m[0m	[37m$bunfs/root/pochi:104693[39m[0m[0m[1m[37m	MjpegToMp4[39m[22m[0m[0m	[ffmpeg] stderr:   libswscale      7.  5.100 /  7.  5.100
[37m2026-04-29 20:47:12.259[39m[0m[0m	[32m[1mDEBUG[22m[39m[0m[0m	[37m$bunfs/root/pochi:104693[39m[0m[0m[1m[37m	MjpegToMp4[39m[22m[0m[0m	[ffmpeg] stderr:   libswresample   4. 12.100 /  4. 12.100
[37m2026-04-29 20:47:12.259[39m[0m[0m	[32m[1mDEBUG[22m[39m[0m[0m	[37m$bunfs/root/pochi:104693[39m[0m[0m[1m[37m	MjpegToMp4[39m[22m[0m[0m	[ffmpeg] stderr:   libpostproc    57.  3.100 / 57.  3.100
[37m2026-04-29 20:47:12.259[39m[0m[0m	[32m[1mDEBUG[22m[39m[0m[0m	[37m$bunfs/root/pochi:104693[39m[0m[0m[1m[37m	MjpegToMp4[39m[22m[0m[0m	[ffmpeg] stderr: Input #0, concat, from '/tmp/pochi-mjpeg2mp4-kPfu6d/frames.ffconcat':
[37m2026-04-29 20:47:12.259[39m[0m[0m	[32m[1mDEBUG[22m[39m[0m[0m	[37m$bunfs/root/pochi:104693[39m[0m[0m[1m[37m	MjpegToMp4[39m[22m[0m[0m	[ffmpeg] stderr:   Duration: N/A, start: 0.000000, bitrate: N/A
[37m2026-04-29 20:47:12.259[39m[0m[0m	[32m[1mDEBUG[22m[39m[0m[0m	[37m$bunfs/root/pochi:104693[39m[0m[0m[1m[37m	MjpegToMp4[39m[22m[0m[0m	[ffmpeg] stderr:   Stream #0:0: Video: mjpeg (Baseline), yuvj420p(pc, bt470bg/unknown/unknown), 1280x577 [SAR 1:1 DAR 1280:577], 25 fps, 25 tbr, 25 tbn
[37m2026-04-29 20:47:12.259[39m[0m[0m	[32m[1mDEBUG[22m[39m[0m[0m	[37m$bunfs/root/pochi:104693[39m[0m[0m[1m[37m	MjpegToMp4[39m[22m[0m[0m	[ffmpeg] stderr: Stream mapping:
[37m2026-04-29 20:47:12.259[39m[0m[0m	[32m[1mDEBUG[22m[39m[0m[0m	[37m$bunfs/root/pochi:104693[39m[0m[0m[1m[37m	MjpegToMp4[39m[22m[0m[0m	[ffmpeg] stderr:   Stream #0:0 -> #0:0 (mjpeg (native) -> h264 (libx264))
[37m2026-04-29 20:47:12.259[39m[0m[0m	[32m[1mDEBUG[22m[39m[0m[0m	[37m$bunfs/root/pochi:104693[39m[0m[0m[1m[37m	MjpegToMp4[39m[22m[0m[0m	[ffmpeg] stderr: Press [q] to stop, [?] for help
[37m2026-04-29 20:47:12.264[39m[0m[0m	[32m[1mDEBUG[22m[39m[0m[0m	[37m$bunfs/root/pochi:104693[39m[0m[0m[1m[37m	MjpegToMp4[39m[22m[0m[0m	[ffmpeg] stderr: [swscaler @ 0x5de35aca71c0] deprecated pixel format used, make sure you did set range correctly
[37m2026-04-29 20:47:12.269[39m[0m[0m	[32m[1mDEBUG[22m[39m[0m[0m	[37m$bunfs/root/pochi:104693[39m[0m[0m[1m[37m	MjpegToMp4[39m[22m[0m[0m	[ffmpeg] stderr: [swscaler @ 0x5de35ad937c0] deprecated pixel format used, make sure you did set range correctly
[37m2026-04-29 20:47:12.282[39m[0m[0m	[32m[1mDEBUG[22m[39m[0m[0m	[37m$bunfs/root/pochi:104693[39m[0m[0m[1m[37m	MjpegToMp4[39m[22m[0m[0m	[ffmpeg] stderr:     Last message repeated 2 times
[37m2026-04-29 20:47:12.282[39m[0m[0m	[32m[1mDEBUG[22m[39m[0m[0m	[37m$bunfs/root/pochi:104693[39m[0m[0m[1m[37m	MjpegToMp4[39m[22m[0m[0m	[ffmpeg] stderr: [libx264 @ 0x5de35ac81140] using SAR=1/1
[37m2026-04-29 20:47:12.282[39m[0m[0m	[32m[1mDEBUG[22m[39m[0m[0m	[37m$bunfs/root/pochi:104693[39m[0m[0m[1m[37m	MjpegToMp4[39m[22m[0m[0m	[ffmpeg] stderr: [libx264 @ 0x5de35ac81140] using cpu capabilities: MMX2 SSE2Fast SSSE3 SSE4.2 AVX FMA3 BMI2 AVX2
[37m2026-04-29 20:47:12.284[39m[0m[0m	[32m[1mDEBUG[22m[39m[0m[0m	[37m$bunfs/root/pochi:104693[39m[0m[0m[1m[37m	MjpegToMp4[39m[22m[0m[0m	[ffmpeg] stderr: [libx264 @ 0x5de35ac81140] profile High, level 3.0, 4:2:0, 8-bit
[37m2026-04-29 20:47:12.284[39m[0m[0m	[32m[1mDEBUG[22m[39m[0m[0m	[37m$bunfs/root/pochi:104693[39m[0m[0m[1m[37m	MjpegToMp4[39m[22m[0m[0m	[ffmpeg] stderr: [libx264 @ 0x5de35ac81140] 264 - core 164 r3108 31e19f9 - H.264/MPEG-4 AVC codec - Copyleft 2003-2023 - http://www.videolan.org/x264.html - options: cabac=1 ref=1 deblock=1:0:0 analyse=0x3:0x113 me=hex subme=2 psy=1 psy_rd=1.00:0.00 mixed_ref=0 me_range=16 chroma_me=1 trellis=0 8x8dct=1 cqm=0 deadzone=21,11 fast_pskip=1 chroma_qp_offset=0 threads=6 lookahead_threads=2 sliced_threads=0 nr=0 decimate=1 interlaced=0 bluray_compat=0 constrained_intra=0 bframes=3 b_pyramid=2 b_adapt=1 b_bias=0 direct=1 weightb=1 open_gop=0 weightp=1 keyint=250 keyint_min=25 scenecut=40 intra_refresh=0 rc_lookahead=10 rc=crf mbtree=1 crf=23.0 qcomp=0.60 qpmin=0 qpmax=69 qpstep=4 ip_ratio=1.40 aq=1:1.00
[37m2026-04-29 20:47:12.284[39m[0m[0m	[32m[1mDEBUG[22m[39m[0m[0m	[37m$bunfs/root/pochi:104693[39m[0m[0m[1m[37m	MjpegToMp4[39m[22m[0m[0m	[ffmpeg] stderr: Output #0, mp4, to '/tmp/pochi-browser-agent-video-769fb2c4-0b2e-4cc9-9c52-b7e741aecd3a.mp4':
[37m2026-04-29 20:47:12.285[39m[0m[0m	[32m[1mDEBUG[22m[39m[0m[0m	[37m$bunfs/root/pochi:104693[39m[0m[0m[1m[37m	MjpegToMp4[39m[22m[0m[0m	[ffmpeg] stderr:   Metadata:
[37m2026-04-29 20:47:12.285[39m[0m[0m	[32m[1mDEBUG[22m[39m[0m[0m	[37m$bunfs/root/pochi:104693[39m[0m[0m[1m[37m	MjpegToMp4[39m[22m[0m[0m	[ffmpeg] stderr:     encoder         : Lavf60.16.100
[37m2026-04-29 20:47:12.285[39m[0m[0m	[32m[1mDEBUG[22m[39m[0m[0m	[37m$bunfs/root/pochi:104693[39m[0m[0m[1m[37m	MjpegToMp4[39m[22m[0m[0m	[ffmpeg] stderr:   Stream #0:0: Video: h264 (avc1 / 0x31637661), yuv420p(tv, bt470bg/unknown/unknown, progressive), 854x480 [SAR 35200:35197 DAR 3080:1731], q=2-31, 25 fps, 12800 tbn
[37m2026-04-29 20:47:12.285[39m[0m[0m	[32m[1mDEBUG[22m[39m[0m[0m	[37m$bunfs/root/pochi:104693[39m[0m[0m[1m[37m	MjpegToMp4[39m[22m[0m[0m	[ffmpeg] stderr:     Metadata:
[37m2026-04-29 20:47:12.285[39m[0m[0m	[32m[1mDEBUG[22m[39m[0m[0m	[37m$bunfs/root/pochi:104693[39m[0m[0m[1m[37m	MjpegToMp4[39m[22m[0m[0m	[ffmpeg] stderr:       encoder         : Lavc60.31.102 libx264
[37m2026-04-29 20:47:12.285[39m[0m[0m	[32m[1mDEBUG[22m[39m[0m[0m	[37m$bunfs/root/pochi:104693[39m[0m[0m[1m[37m	MjpegToMp4[39m[22m[0m[0m	[ffmpeg] stderr:     Side data:
[37m2026-04-29 20:47:12.285[39m[0m[0m	[32m[1mDEBUG[22m[39m[0m[0m	[37m$bunfs/root/pochi:104693[39m[0m[0m[1m[37m	MjpegToMp4[39m[22m[0m[0m	[ffmpeg] stderr:       cpb: bitrate max/min/avg: 0/0/0 buffer size: 0 vbv_delay: N/A
[37m2026-04-29 20:47:12.286[39m[0m[0m	[32m[1mDEBUG[22m[39m[0m[0m	[37m$bunfs/root/pochi:104693[39m[0m[0m[1m[37m	MjpegToMp4[39m[22m[0m[0m	[ffmpeg] stderr: frame=    0 fps=0.0 q=0.0 size=       0kB time=N/A bitrate=N/A speed=N/A    
[37m2026-04-29 20:47:12.773[39m[0m[0m	[32m[1mDEBUG[22m[39m[0m[0m	[37m$bunfs/root/pochi:104693[39m[0m[0m[1m[37m	MjpegToMp4[39m[22m[0m[0m	[ffmpeg] stderr: frame=  287 fps=0.0 q=28.0 size=       0kB time=00:00:11.40 bitrate=   0.0kbits/s dup=287 drop=0 speed=22.6x    
[37m2026-04-29 20:47:13.281[39m[0m[0m	[32m[1mDEBUG[22m[39m[0m[0m	[37m$bunfs/root/pochi:104693[39m[0m[0m[1m[37m	MjpegToMp4[39m[22m[0m[0m	[ffmpeg] stderr: frame=  602 fps=595 q=28.0 size=       0kB time=00:00:24.04 bitrate=   0.0kbits/s dup=580 drop=0 speed=23.7x    
[37m2026-04-29 20:47:13.780[39m[0m[0m	[32m[1mDEBUG[22m[39m[0m[0m	[37m$bunfs/root/pochi:104693[39m[0m[0m[1m[37m	MjpegToMp4[39m[22m[0m[0m	[ffmpeg] stderr: frame=  931 fps=614 q=28.0 size=       0kB time=00:00:37.20 bitrate=   0.0kbits/s dup=882 drop=0 speed=24.5x    
[37m2026-04-29 20:47:13.886[39m[0m[0m	[32m[1mDEBUG[22m[39m[0m[0m	[37m$bunfs/root/pochi:104693[39m[0m[0m[1m[37m	MjpegToMp4[39m[22m[0m[0m	[ffmpeg] stderr: [vost#0:0/libx264 @ 0x5de35ac80d80] More than 1000 frames duplicated
[37m2026-04-29 20:47:14.289[39m[0m[0m	[32m[1mDEBUG[22m[39m[0m[0m	[37m$bunfs/root/pochi:104693[39m[0m[0m[1m[37m	MjpegToMp4[39m[22m[0m[0m	[ffmpeg] stderr: frame= 1240 fps=614 q=28.0 size=       0kB time=00:00:49.60 bitrate=   0.0kbits/s dup=1171 drop=0 speed=24.6x    
[37m2026-04-29 20:47:14.516[39m[0m[0m	[32m[1mDEBUG[22m[39m[0m[0m	[37m$bunfs/root/pochi:104693[39m[0m[0m[1m[37m	MjpegToMp4[39m[22m[0m[0m	[ffmpeg] stderr: [mp4 @ 0x5de35ac80640] Starting second pass: moving the moov atom to the beginning of the file
[37m2026-04-29 20:47:14.517[39m[0m[0m	[32m[1mDEBUG[22m[39m[0m[0m	[37m$bunfs/root/pochi:104693[39m[0m[0m[1m[37m	MjpegToMp4[39m[22m[0m[0m	[ffmpeg] stderr: [out#0/mp4 @ 0x5de35ac80140] video:137kB audio:0kB subtitle:0kB other streams:0kB global headers:0kB muxing overhead: 12.213202%
[37m2026-04-29 20:47:14.517[39m[0m[0m	[32m[1mDEBUG[22m[39m[0m[0m	[37m$bunfs/root/pochi:104693[39m[0m[0m[1m[37m	MjpegToMp4[39m[22m[0m[0m	[ffmpeg] stderr: frame= 1357 fps=601 q=-1.0 Lsize=     154kB time=00:00:54.16 bitrate=  23.3kbits/s dup=1241 drop=0 speed=  24x    
[37m2026-04-29 20:47:14.522[39m[0m[0m	[32m[1mDEBUG[22m[39m[0m[0m	[37m$bunfs/root/pochi:104693[39m[0m[0m[1m[37m	MjpegToMp4[39m[22m[0m[0m	[ffmpeg] stderr: [libx264 @ 0x5de35ac81140] frame I:6     Avg QP:11.78  size: 11346
[37m2026-04-29 20:47:14.522[39m[0m[0m	[32m[1mDEBUG[22m[39m[0m[0m	[37m$bunfs/root/pochi:104693[39m[0m[0m[1m[37m	MjpegToMp4[39m[22m[0m[0m	[ffmpeg] stderr: [libx264 @ 0x5de35ac81140] frame P:343   Avg QP:11.86  size:   127
[37m2026-04-29 20:47:14.522[39m[0m[0m	[32m[1mDEBUG[22m[39m[0m[0m	[37m$bunfs/root/pochi:104693[39m[0m[0m[1m[37m	MjpegToMp4[39m[22m[0m[0m	[ffmpeg] stderr: [libx264 @ 0x5de35ac81140] frame B:1008  Avg QP:13.08  size:    28
[37m2026-04-29 20:47:14.522[39m[0m[0m	[32m[1mDEBUG[22m[39m[0m[0m	[37m$bunfs/root/pochi:104693[39m[0m[0m[1m[37m	MjpegToMp4[39m[22m[0m[0m	[ffmpeg] stderr: [libx264 @ 0x5de35ac81140] consecutive B-frames:  0.9%  0.1%  0.2% 98.7%
[37m2026-04-29 20:47:14.522[39m[0m[0m	[32m[1mDEBUG[22m[39m[0m[0m	[37m$bunfs/root/pochi:104693[39m[0m[0m[1m[37m	MjpegToMp4[39m[22m[0m[0m	[ffmpeg] stderr: [libx264 @ 0x5de35ac81140] mb I  I16..4: 89.2%  0.2% 10.6%
[37m2026-04-29 20:47:14.522[39m[0m[0m	[32m[1mDEBUG[22m[39m[0m[0m	[37m$bunfs/root/pochi:104693[39m[0m[0m[1m[37m	MjpegToMp4[39m[22m[0m[0m	[ffmpeg] stderr: [libx264 @ 0x5de35ac81140] mb P  I16..4:  1.2%  0.0%  0.1%  P16..4:  0.1%  0.0%  0.0%  0.0%  0.0%    skip:98.6%
[37m2026-04-29 20:47:14.522[39m[0m[0m	[32m[1mDEBUG[22m[39m[0m[0m	[37m$bunfs/root/pochi:104693[39m[0m[0m[1m[37m	MjpegToMp4[39m[22m[0m[0m	[ffmpeg] stderr: [libx264 @ 0x5de35ac81140] mb B  I16..4:  0.0%  0.0%  0.0%  B16..8:  0.1%  0.0%  0.0%  direct: 0.0%  skip:99.8%  L0:44.4% L1:55.5% BI: 0.1%
[37m2026-04-29 20:47:14.522[39m[0m[0m	[32m[1mDEBUG[22m[39m[0m[0m	[37m$bunfs/root/pochi:104693[39m[0m[0m[1m[37m	MjpegToMp4[39m[22m[0m[0m	[ffmpeg] stderr: [libx264 @ 0x5de35ac81140] 8x8 transform intra:0.1% inter:12.3%
[37m2026-04-29 20:47:14.522[39m[0m[0m	[32m[1mDEBUG[22m[39m[0m[0m	[37m$bunfs/root/pochi:104693[39m[0m[0m[1m[37m	MjpegToMp4[39m[22m[0m[0m	[ffmpeg] stderr: [libx264 @ 0x5de35ac81140] coded y,uvDC,uvAC intra: 7.4% 17.5% 14.8% inter: 0.0% 0.0% 0.0%
[37m2026-04-29 20:47:14.523[39m[0m[0m	[32m[1mDEBUG[22m[39m[0m[0m	[37m$bunfs/root/pochi:104693[39m[0m[0m[1m[37m	MjpegToMp4[39m[22m[0m[0m	[ffmpeg] stderr: [libx264 @ 0x5de35ac81140] i16 v,h,dc,p: 86% 11%  2%  0%
[37m2026-04-29 20:47:14.523[39m[0m[0m	[32m[1mDEBUG[22m[39m[0m[0m	[37m$bunfs/root/pochi:104693[39m[0m[0m[1m[37m	MjpegToMp4[39m[22m[0m[0m	[ffmpeg] stderr: [libx264 @ 0x5de35ac81140] i8 v,h,dc,ddl,ddr,vr,hd,vl,hu: 22% 30% 28%  0%  3%  0%  2%  0% 15%
[37m2026-04-29 20:47:14.523[39m[0m[0m	[32m[1mDEBUG[22m[39m[0m[0m	[37m$bunfs/root/pochi:104693[39m[0m[0m[1m[37m	MjpegToMp4[39m[22m[0m[0m	[ffmpeg] stderr: [libx264 @ 0x5de35ac81140] i4 v,h,dc,ddl,ddr,vr,hd,vl,hu: 24% 33% 21%  2%  3%  4%  5%  3%  5%
[37m2026-04-29 20:47:14.523[39m[0m[0m	[32m[1mDEBUG[22m[39m[0m[0m	[37m$bunfs/root/pochi:104693[39m[0m[0m[1m[37m	MjpegToMp4[39m[22m[0m[0m	[ffmpeg] stderr: [libx264 @ 0x5de35ac81140] i8c dc,h,v,p: 68% 28%  4%  0%
[37m2026-04-29 20:47:14.523[39m[0m[0m	[32m[1mDEBUG[22m[39m[0m[0m	[37m$bunfs/root/pochi:104693[39m[0m[0m[1m[37m	MjpegToMp4[39m[22m[0m[0m	[ffmpeg] stderr: [libx264 @ 0x5de35ac81140] Weighted P-Frames: Y:0.0% UV:0.0%
[37m2026-04-29 20:47:14.523[39m[0m[0m	[32m[1mDEBUG[22m[39m[0m[0m	[37m$bunfs/root/pochi:104693[39m[0m[0m[1m[37m	MjpegToMp4[39m[22m[0m[0m	[ffmpeg] stderr: [libx264 @ 0x5de35ac81140] kb/s:20.58
[37m2026-04-29 20:47:14.532[39m[0m[0m	[32m[1mDEBUG[22m[39m[0m[0m	[37m$bunfs/root/pochi:104693[39m[0m[0m[1m[37m	MjpegToMp4[39m[22m[0m[0m	[ffmpeg] stderr: 
[37m2026-04-29 20:47:14.533[39m[0m[0m	[32m[1mDEBUG[22m[39m[0m[0m	[37mevents:98[39m[0m[0m[1m[37m	MjpegToMp4[39m[22m[0m[0m	[ffmpeg] end
[37m2026-04-29 20:48:33.408[39m[0m[0m	[32m[1mDEBUG[22m[39m[0m[0m	[37mnative:7[39m[0m[0m[1m[37m	Pochi[39m[22m[0m[0m	Task runner finished successfully.
[37m2026-04-29 20:48:33.408[39m[0m[0m	[32m[1mDEBUG[22m[39m[0m[0m	[37mnative:7[39m[0m[0m[1m[37m	Pochi[39m[22m[0m[0m	Shutting down...
[37m2026-04-29 20:48:33.423[39m[0m[0m	[32m[1mDEBUG[22m[39m[0m[0m	[37mnative:7[39m[0m[0m[1m[37m	Pochi[39m[22m[0m[0m	Shutdown completed. Process will exit.
[37m2026-04-29 20:48:33.424[39m[0m[0m	[32m[1mDEBUG[22m[39m[0m[0m	[37m[39m[0m[0m[1m[37m	Pochi[39m[22m[0m[0m	Process exiting with code 0
1m[37m	MjpegToMp4[39m[22m[0m[0m	[ffmpeg] stderr:   libswscale      7.  5.100 /  7.  5.100
[37m2026-04-29 20:46:51.506[39m[0m[0m	[32m[1mDEBUG[22m[39m[0m[0m	[37m$bunfs/root/pochi:104693[39m[0m[0m[1m[37m	MjpegToMp4[39m[22m[0m[0m	[ffmpeg] stderr:   libswresample   4. 12.100 /  4. 12.100
[37m2026-04-29 20:46:51.506[39m[0m[0m	[32m[1mDEBUG[22m[39m[0m[0m	[37m$bunfs/root/pochi:104693[39m[0m[0m[1m[37m	MjpegToMp4[39m[22m[0m[0m	[ffmpeg] stderr:   libpostproc    57.  3.100 / 57.  3.100
[37m2026-04-29 20:46:51.510[39m[0m[0m	[32m[1mDEBUG[22m[39m[0m[0m	[37m$bunfs/root/pochi:104693[39m[0m[0m[1m[37m	MjpegToMp4[39m[22m[0m[0m	[ffmpeg] stderr: [mjpeg @ 0x5bfb6e791e40] EOI missing, emulating
[37m2026-04-29 20:46:51.511[39m[0m[0m	[32m[1mDEBUG[22m[39m[0m[0m	[37m$bunfs/root/pochi:104693[39m[0m[0m[1m[37m	MjpegToMp4[39m[22m[0m[0m	[ffmpeg] stderr: Input #0, concat, from '/tmp/pochi-mjpeg2mp4-xC6Odw/frames.ffconcat':
[37m2026-04-29 20:46:51.511[39m[0m[0m	[32m[1mDEBUG[22m[39m[0m[0m	[37m$bunfs/root/pochi:104693[39m[0m[0m[1m[37m	MjpegToMp4[39m[22m[0m[0m	[ffmpeg] stderr:   Duration: N/A, start: 0.000000, bitrate: N/A
[37m2026-04-29 20:46:51.513[39m[0m[0m	[32m[1mDEBUG[22m[39m[0m[0m	[37m$bunfs/root/pochi:104693[39m[0m[0m[1m[37m	MjpegToMp4[39m[22m[0m[0m	[ffmpeg] stderr:   Stream #0:0: Video: mjpeg (Baseline), yuvj420p(pc, bt470bg/unknown/unknown), 1280x577 [SAR 1:1 DAR 1280:577], 25 fps, 25 tbr, 25 tbn
[37m2026-04-29 20:46:51.513[39m[0m[0m	[32m[1mDEBUG[22m[39m[0m[0m	[37m$bunfs/root/pochi:104693[39m[0m[0m[1m[37m	MjpegToMp4[39m[22m[0m[0m	[ffmpeg] stderr: Stream mapping:
[37m2026-04-29 20:46:51.513[39m[0m[0m	[32m[1mDEBUG[22m[39m[0m[0m	[37m$bunfs/root/pochi:104693[39m[0m[0m[1m[37m	MjpegToMp4[39m[22m[0m[0m	[ffmpeg] stderr:   Stream #0:0 -> #0:0 (mjpeg (native) -> h264 (libx264))
[37m2026-04-29 20:46:51.513[39m[0m[0m	[32m[1mDEBUG[22m[39m[0m[0m	[37m$bunfs/root/pochi:104693[39m[0m[0m[1m[37m	MjpegToMp4[39m[22m[0m[0m	[ffmpeg] stderr: Press [q] to stop, [?] for help
[37m2026-04-29 20:46:51.517[39m[0m[0m	[32m[1mDEBUG[22m[39m[0m[0m	[37m$bunfs/root/pochi:104693[39m[0m[0m[1m[37m	MjpegToMp4[39m[22m[0m[0m	[ffmpeg] stderr: [swscaler @ 0x5bfb6e7ad040] deprecated pixel format used, make sure you did set range correctly
[37m2026-04-29 20:46:51.518[39m[0m[0m	[32m[1mDEBUG[22m[39m[0m[0m	[37m$bunfs/root/pochi:104693[39m[0m[0m[1m[37m	MjpegToMp4[39m[22m[0m[0m	[ffmpeg] stderr: [mjpeg @ 0x5bfb6e791e40] EOI missing, emulating
[37m2026-04-29 20:46:51.522[39m[0m[0m	[32m[1mDEBUG[22m[39m[0m[0m	[37m$bunfs/root/pochi:104693[39m[0m[0m[1m[37m	MjpegToMp4[39m[22m[0m[0m	[ffmpeg] stderr: [swscaler @ 0x5bfb6e8a2500] deprecated pixel format used, make sure you did set range correctly
[37m2026-04-29 20:46:51.530[39m[0m[0m	[32m[1mDEBUG[22m[39m[0m[0m	[37m$bunfs/root/pochi:104693[39m[0m[0m[1m[37m	MjpegToMp4[39m[22m[0m[0m	[ffmpeg] stderr: [swscaler @ 0x5bfb6e8a24c0] deprecated pixel format used, make sure you did set range correctly
[37m2026-04-29 20:46:51.551[39m[0m[0m	[32m[1mDEBUG[22m[39m[0m[0m	[37m$bunfs/root/pochi:104693[39m[0m[0m[1m[37m	MjpegToMp4[39m[22m[0m[0m	[ffmpeg] stderr:     Last message repeated 1 times
[37m2026-04-29 20:46:51.551[39m[0m[0m	[32m[1mDEBUG[22m[39m[0m[0m	[37m$bunfs/root/pochi:104693[39m[0m[0m[1m[37m	MjpegToMp4[39m[22m[0m[0m	[ffmpeg] stderr: [libx264 @ 0x5bfb6e795ec0] using SAR=1/1
[37m2026-04-29 20:46:51.551[39m[0m[0m	[32m[1mDEBUG[22m[39m[0m[0m	[37m$bunfs/root/pochi:104693[39m[0m[0m[1m[37m	MjpegToMp4[39m[22m[0m[0m	[ffmpeg] stderr: [libx264 @ 0x5bfb6e795ec0] using cpu capabilities: MMX2 SSE2Fast SSSE3 SSE4.2 AVX FMA3 BMI2 AVX2
[37m2026-04-29 20:46:51.551[39m[0m[0m	[32m[1mDEBUG[22m[39m[0m[0m	[37m$bunfs/root/pochi:104693[39m[0m[0m[1m[37m	MjpegToMp4[39m[22m[0m[0m	[ffmpeg] stderr: [libx264 @ 0x5bfb6e795ec0] profile High, level 3.0, 4:2:0, 8-bit
[37m2026-04-29 20:46:51.551[39m[0m[0m	[32m[1mDEBUG[22m[39m[0m[0m	[37m$bunfs/root/pochi:104693[39m[0m[0m[1m[37m	MjpegToMp4[39m[22m[0m[0m	[ffmpeg] stderr: [libx264 @ 0x5bfb6e795ec0] 264 - core 164 r3108 31e19f9 - H.264/MPEG-4 AVC codec - Copyleft 2003-2023 - http://www.videolan.org/x264.html - options: cabac=1 ref=1 deblock=1:0:0 analyse=0x3:0x113 me=hex subme=2 psy=1 psy_rd=1.00:0.00 mixed_ref=0 me_range=16 chroma_me=1 trellis=0 8x8dct=1 cqm=0 deadzone=21,11 fast_pskip=1 chroma_qp_offset=0 threads=6 lookahead_threads=2 sliced_threads=0 nr=0 decimate=1 interlaced=0 bluray_compat=0 constrained_intra=0 bframes=3 b_pyramid=2 b_adapt=1 b_bias=0 direct=1 weightb=1 open_gop=0 weightp=1 keyint=250 keyint_min=25 scenecut=40 intra_refresh=0 rc_lookahead=10 rc=crf mbtree=1 crf=23.0 qcomp=0.60 qpmin=0 qpmax=69 qpstep=4 ip_ratio=1.40 aq=1:1.00
[37m2026-04-29 20:46:51.552[39m[0m[0m	[32m[1mDEBUG[22m[39m[0m[0m	[37m$bunfs/root/pochi:104693[39m[0m[0m[1m[37m	MjpegToMp4[39m[22m[0m[0m	[ffmpeg] stderr: Output #0, mp4, to '/tmp/pochi-browser-agent-video-c9a36f83-fd91-4b73-89a4-db3ae5f5214c.mp4':
[37m2026-04-29 20:46:51.553[39m[0m[0m	[32m[1mDEBUG[22m[39m[0m[0m	[37m$bunfs/root/pochi:104693[39m[0m[0m[1m[37m	MjpegToMp4[39m[22m[0m[0m	[ffmpeg] stderr:   Metadata:
[37m2026-04-29 20:46:51.553[39m[0m[0m	[32m[1mDEBUG[22m[39m[0m[0m	[37m$bunfs/root/pochi:104693[39m[0m[0m[1m[37m	MjpegToMp4[39m[22m[0m[0m	[ffmpeg] stderr:     encoder         : Lavf60.16.100
[37m2026-04-29 20:46:51.553[39m[0m[0m	[32m[1mDEBUG[22m[39m[0m[0m	[37m$bunfs/root/pochi:104693[39m[0m[0m[1m[37m	MjpegToMp4[39m[22m[0m[0m	[ffmpeg] stderr:   Stream #0:0: Video: h264 (avc1 / 0x31637661), yuv420p(tv, bt470bg/unknown/unknown, progressive), 854x480 [SAR 35200:35197 DAR 3080:1731], q=2-31, 25 fps, 12800 tbn
[37m2026-04-29 20:46:51.553[39m[0m[0m	[32m[1mDEBUG[22m[39m[0m[0m	[37m$bunfs/root/pochi:104693[39m[0m[0m[1m[37m	MjpegToMp4[39m[22m[0m[0m	[ffmpeg] stderr:     Metadata:
[37m2026-04-29 20:46:51.554[39m[0m[0m	[32m[1mDEBUG[22m[39m[0m[0m	[37m$bunfs/root/pochi:104693[39m[0m[0m[1m[37m	MjpegToMp4[39m[22m[0m[0m	[ffmpeg] stderr:       encoder         : Lavc60.31.102 libx264
[37m2026-04-29 20:46:51.554[39m[0m[0m	[32m[1mDEBUG[22m[39m[0m[0m	[37m$bunfs/root/pochi:104693[39m[0m[0m[1m[37m	MjpegToMp4[39m[22m[0m[0m	[ffmpeg] stderr:     Side data:
[37m2026-04-29 20:46:51.554[39m[0m[0m	[32m[1mDEBUG[22m[39m[0m[0m	[37m$bunfs/root/pochi:104693[39m[0m[0m[1m[37m	MjpegToMp4[39m[22m[0m[0m	[ffmpeg] stderr:       cpb: bitrate max/min/avg: 0/0/0 buffer size: 0 vbv_delay: N/A
[37m2026-04-29 20:46:51.554[39m[0m[0m	[32m[1mDEBUG[22m[39m[0m[0m	[37m$bunfs/root/pochi:104693[39m[0m[0m[1m[37m	MjpegToMp4[39m[22m[0m[0m	[ffmpeg] stderr: frame=    0 fps=0.0 q=0.0 size=       0kB time=N/A bitrate=N/A speed=N/A    
[37m2026-04-29 20:46:52.435[39m[0m[0m	[32m[1mDEBUG[22m[39m[0m[0m	[37m$bunfs/root/pochi:104693[39m[0m[0m[1m[37m	MjpegToMp4[39m[22m[0m[0m	[ffmpeg] stderr: frame=  481 fps=0.0 q=28.0 size=       0kB time=00:00:19.16 bitrate=   0.0kbits/s dup=498 drop=0 speed=34.4x    
[37m2026-04-29 20:46:52.594[39m[0m[0m	[32m[1mDEBUG[22m[39m[0m[0m	[37m$bunfs/root/pochi:104693[39m[0m[0m[1m[37m	MjpegToMp4[39m[22m[0m[0m	[ffmpeg] stderr: frame=  580 fps=543 q=28.0 size=       0kB time=00:00:23.12 bitrate=   0.0kbits/s dup=587 drop=0 speed=21.6x    
[37m2026-04-29 20:46:53.106[39m[0m[0m	[32m[1mDEBUG[22m[39m[0m[0m	[37m$bunfs/root/pochi:104693[39m[0m[0m[1m[37m	MjpegToMp4[39m[22m[0m[0m	[ffmpeg] stderr: frame=  868 fps=553 q=28.0 size=       0kB time=00:00:34.60 bitrate=   0.0kbits/s dup=851 drop=0 speed=  22x    
[37m2026-04-29 20:46:53.398[39m[0m[0m	[32m[1mDEBUG[22m[39m[0m[0m	[37m$bunfs/root/pochi:104693[39m[0m[0m[1m[37m	MjpegToMp4[39m[22m[0m[0m	[ffmpeg] stderr: [vost#0:0/libx264 @ 0x5bfb6e795bc0] More than 1000 frames duplicated
[37m2026-04-29 20:46:53.614[39m[0m[0m	[32m[1mDEBUG[22m[39m[0m[0m	[37m$bunfs/root/pochi:104693[39m[0m[0m[1m[37m	MjpegToMp4[39m[22m[0m[0m	[ffmpeg] stderr: frame= 1154 fps=554 q=28.0 size=       0kB time=00:00:46.08 bitrate=   0.0kbits/s dup=1117 drop=0 speed=22.1x    
[37m2026-04-29 20:46:54.488[39m[0m[0m	[32m[1mDEBUG[22m[39m[0m[0m	[37m$bunfs/root/pochi:104693[39m[0m[0m[1m[37m	MjpegToMp4[39m[22m[0m[0m	[ffmpeg] stderr: frame= 1712 fps=661 q=28.0 size=       0kB time=00:01:08.40 bitrate=   0.0kbits/s dup=1656 drop=0 speed=26.4x    
[37m2026-04-29 20:46:54.998[39m[0m[0m	[32m[1mDEBUG[22m[39m[0m[0m	[37m$bunfs/root/pochi:104693[39m[0m[0m[1m[37m	MjpegToMp4[39m[22m[0m[0m	[ffmpeg] stderr: frame= 2105 fps=665 q=28.0 size=       0kB time=00:01:24.08 bitrate=   0.0kbits/s dup=2046 drop=0 speed=26.6x    
[37m2026-04-29 20:46:55.666[39m[0m[0m	[32m[1mDEBUG[22m[39m[0m[0m	[37m$bunfs/root/pochi:104693[39m[0m[0m[1m[37m	MjpegToMp4[39m[22m[0m[0m	[ffmpeg] stderr: frame= 2572 fps=669 q=28.0 size=       0kB time=00:01:42.76 bitrate=   0.0kbits/s dup=2510 drop=0 speed=26.7x    
[37m2026-04-29 20:46:56.187[39m[0m[0m	[32m[1mDEBUG[22m[39m[0m[0m	[37m$bunfs/root/pochi:104693[39m[0m[0m[1m[37m	MjpegToMp4[39m[22m[0m[0m	[ffmpeg] stderr: frame= 2944 fps=656 q=28.0 size=       0kB time=00:01:57.68 bitrate=   0.0kbits/s dup=2881 drop=0 speed=26.2x    
[37m2026-04-29 20:46:56.904[39m[0m[0m	[32m[1mDEBUG[22m[39m[0m[0m	[37m$bunfs/root/pochi:104693[39m[0m[0m[1m[37m	MjpegToMp4[39m[22m[0m[0m	[ffmpeg] stderr: frame= 3440 fps=685 q=28.0 size=       0kB time=00:02:17.48 bitrate=   0.0kbits/s dup=3374 drop=0 speed=27.4x    
[37m2026-04-29 20:46:57.596[39m[0m[0m	[32m[1mDEBUG[22m[39m[0m[0m	[37m$bunfs/root/pochi:104693[39m[0m[0m[1m[37m	MjpegToMp4[39m[22m[0m[0m	[ffmpeg] stderr: frame= 3940 fps=688 q=28.0 size=     256kB time=00:02:37.48 bitrate=  13.3kbits/s dup=3872 drop=0 speed=27.5x    
[37m2026-04-29 20:46:58.088[39m[0m[0m	[32m[1mDEBUG[22m[39m[0m[0m	[37m$bunfs/root/pochi:104693[39m[0m[0m[1m[37m	MjpegToMp4[39m[22m[0m[0m	[ffmpeg] stderr: frame= 4305 fps=689 q=28.0 size=     256kB time=00:02:52.12 bitrate=  12.2kbits/s dup=4236 drop=0 speed=27.5x    
[37m2026-04-29 20:46:58.758[39m[0m[0m	[32m[1mDEBUG[22m[39m[0m[0m	[37m$bunfs/root/pochi:104693[39m[0m[0m[1m[37m	MjpegToMp4[39m[22m[0m[0m	[ffmpeg] stderr: frame= 4806 fps=693 q=28.0 size=     256kB time=00:03:12.12 bitrate=  10.9kbits/s dup=4734 drop=0 speed=27.7x    
[37m2026-04-29 20:46:59.449[39m[0m[0m	[32m[1mDEBUG[22m[39m[0m[0m	[37m$bunfs/root/pochi:104693[39m[0m[0m[1m[37m	MjpegToMp4[39m[22m[0m[0m	[ffmpeg] stderr: frame= 5305 fps=698 q=28.0 size=     256kB time=00:03:32.12 bitrate=   9.9kbits/s dup=5232 drop=0 speed=27.9x    
[37m2026-04-29 20:46:59.796[39m[0m[0m	[32m[1mDEBUG[22m[39m[0m[0m	[37m$bunfs/root/pochi:104693[39m[0m[0m[1m[37m	MjpegToMp4[39m[22m[0m[0m	[ffmpeg] stderr: frame= 5540 fps=681 q=28.0 size=     256kB time=00:03:41.56 bitrate=   9.5kbits/s dup=5466 drop=0 speed=27.2x    
[37m2026-04-29 20:47:00.513[39m[0m[0m	[32m[1mDEBUG[22m[39m[0m[0m	[37m$bunfs/root/pochi:104693[39m[0m[0m[1m[37m	MjpegToMp4[39m[22m[0m[0m	[ffmpeg] stderr: frame= 6039 fps=697 q=28.0 size=     256kB time=00:04:01.56 bitrate=   8.7kbits/s dup=5964 drop=0 speed=27.9x    
[37m2026-04-29 20:47:00.916[39m[0m[0m	[32m[1mDEBUG[22m[39m[0m[0m	[37m$bunfs/root/pochi:104693[39m[0m[0m[1m[37m	MjpegToMp4[39m[22m[0m[0m	[ffmpeg] stderr: frame= 6337 fps=686 q=28.0 size=     256kB time=00:04:13.40 bitrate=   8.3kbits/s dup=6258 drop=0 speed=27.4x    
[37m2026-04-29 20:47:01.322[39m[0m[0m	[32m[1mDEBUG[22m[39m[0m[0m	[37m$bunfs/root/pochi:104693[39m[0m[0m[1m[37m	MjpegToMp4[39m[22m[0m[0m	[ffmpeg] stderr: frame= 6625 fps=679 q=28.0 size=     256kB time=00:04:24.88 bitrate=   7.9kbits/s dup=6543 drop=0 speed=27.1x    
[37m2026-04-29 20:47:01.804[39m[0m[0m	[32m[1mDEBUG[22m[39m[0m[0m	[37m$bunfs/root/pochi:104693[39m[0m[0m[1m[37m	MjpegToMp4[39m[22m[0m[0m	[ffmpeg] stderr: frame= 6945 fps=675 q=28.0 size=     512kB time=00:04:37.68 bitrate=  15.1kbits/s dup=6838 drop=0 speed=  27x    
[37m2026-04-29 20:47:02.699[39m[0m[0m	[32m[1mDEBUG[22m[39m[0m[0m	[37m$bunfs/root/pochi:104693[39m[0m[0m[1m[37m	MjpegToMp4[39m[22m[0m[0m	[ffmpeg] stderr: frame= 7524 fps=695 q=28.0 size=     512kB time=00:05:00.88 bitrate=  13.9kbits/s dup=7390 drop=0 speed=27.8x    
[37m2026-04-29 20:47:03.402[39m[0m[0m	[32m[1mDEBUG[22m[39m[0m[0m	[37m$bunfs/root/pochi:104693[39m[0m[0m[1m[37m	MjpegToMp4[39m[22m[0m[0m	[ffmpeg] stderr: frame= 8024 fps=695 q=28.0 size=     512kB time=00:05:20.88 bitrate=  13.1kbits/s dup=7888 drop=0 speed=27.8x    
[37m2026-04-29 20:47:03.793[39m[0m[0m	[32m[1mDEBUG[22m[39m[0m[0m	[37m$bunfs/root/pochi:104693[39m[0m[0m[1m[37m	MjpegToMp4[39m[22m[0m[0m	[ffmpeg] stderr: frame= 8296 fps=686 q=28.0 size=     512kB time=00:05:31.72 bitrate=  12.6kbits/s dup=8157 drop=0 speed=27.4x    
[37m2026-04-29 20:47:04.018[39m[0m[0m	[32m[1mDEBUG[22m[39m[0m[0m	[37m$bunfs/root/pochi:104693[39m[0m[0m[1m[37m	MjpegToMp4[39m[22m[0m[0m	[ffmpeg] stderr: [mp4 @ 0x5bfb6e795580] Starting second pass: moving the moov atom to the beginning of the file
[37m2026-04-29 20:47:04.020[39m[0m[0m	[32m[1mDEBUG[22m[39m[0m[0m	[37m$bunfs/root/pochi:104693[39m[0m[0m[1m[37m	MjpegToMp4[39m[22m[0m[0m	[ffmpeg] stderr: [out#0/mp4 @ 0x5bfb6e793ac0] video:665kB audio:0kB subtitle:0kB other streams:0kB global headers:0kB muxing overhead: 14.957442%
[37m2026-04-29 20:47:04.021[39m[0m[0m	[32m[1mDEBUG[22m[39m[0m[0m	[37m$bunfs/root/pochi:104693[39m[0m[0m[1m[37m	MjpegToMp4[39m[22m[0m[0m	[ffmpeg] stderr: frame= 8416 fps=673 q=-1.0 Lsize=     764kB time=00:05:36.52 bitrate=  18.6kbits/s dup=8231 drop=0 speed=26.9x    
[37m2026-04-29 20:47:04.023[39m[0m[0m	[32m[1mDEBUG[22m[39m[0m[0m	[37m$bunfs/root/pochi:104693[39m[0m[0m[1m[37m	MjpegToMp4[39m[22m[0m[0m	[ffmpeg] stderr: [libx264 @ 0x5bfb6e795ec0] frame I:38    Avg QP:10.41  size: 10244
[37m2026-04-29 20:47:04.023[39m[0m[0m	[32m[1mDEBUG[22m[39m[0m[0m	[37m$bunfs/root/pochi:104693[39m[0m[0m[1m[37m	MjpegToMp4[39m[22m[0m[0m	[ffmpeg] stderr: [libx264 @ 0x5bfb6e795ec0] frame P:2117  Avg QP:14.16  size:    61
[37m2026-04-29 20:47:04.024[39m[0m[0m	[32m[1mDEBUG[22m[39m[0m[0m	[37m$bunfs/root/pochi:104693[39m[0m[0m[1m[37m	MjpegToMp4[39m[22m[0m[0m	[ffmpeg] stderr: [libx264 @ 0x5bfb6e795ec0] frame B:6261  Avg QP:14.02  size:    26
[37m2026-04-29 20:47:04.024[39m[0m[0m	[32m[1mDEBUG[22m[39m[0m[0m	[37m$bunfs/root/pochi:104693[39m[0m[0m[1m[37m	MjpegToMp4[39m[22m[0m[0m	[ffmpeg] stderr: [libx264 @ 0x5bfb6e795ec0] consecutive B-frames:  0.7%  0.1%  0.1% 99.0%
[37m2026-04-29 20:47:04.024[39m[0m[0m	[32m[1mDEBUG[22m[39m[0m[0m	[37m$bunfs/root/pochi:104693[39m[0m[0m[1m[37m	MjpegToMp4[39m[22m[0m[0m	[ffmpeg] stderr: [libx264 @ 0x5bfb6e795ec0] mb I  I16..4: 91.3%  0.4%  8.3%
[37m2026-04-29 20:47:04.024[39m[0m[0m	[32m[1mDEBUG[22m[39m[0m[0m	[37m$bunfs/root/pochi:104693[39m[0m[0m[1m[37m	MjpegToMp4[39m[22m[0m[0m	[ffmpeg] stderr: [libx264 @ 0x5bfb6e795ec0] mb P  I16..4:  0.2%  0.0%  0.0%  P16..4:  0.0%  0.0%  0.0%  0.0%  0.0%    skip:99.7%
[37m2026-04-29 20:47:04.024[39m[0m[0m	[32m[1mDEBUG[22m[39m[0m[0m	[37m$bunfs/root/pochi:104693[39m[0m[0m[1m[37m	MjpegToMp4[39m[22m[0m[0m	[ffmpeg] stderr: [libx264 @ 0x5bfb6e795ec0] mb B  I16..4:  0.0%  0.0%  0.0%  B16..8:  0.0%  0.0%  0.0%  direct: 0.0%  skip:100.0%  L0:43.3% L1:56.6% BI: 0.1%
[37m2026-04-29 20:47:04.024[39m[0m[0m	[32m[1mDEBUG[22m[39m[0m[0m	[37m$bunfs/root/pochi:104693[39m[0m[0m[1m[37m	MjpegToMp4[39m[22m[0m[0m	[ffmpeg] stderr: [libx264 @ 0x5bfb6e795ec0] 8x8 transform intra:0.4% inter:9.8%
[37m2026-04-29 20:47:04.024[39m[0m[0m	[32m[1mDEBUG[22m[39m[0m[0m	[37m$bunfs/root/pochi:104693[39m[0m[0m[1m[37m	MjpegToMp4[39m[22m[0m[0m	[ffmpeg] stderr: [libx264 @ 0x5bfb6e795ec0] coded y,uvDC,uvAC intra: 11.8% 14.5% 13.6% inter: 0.0% 0.0% 0.0%
[37m2026-04-29 20:47:04.024[39m[0m[0m	[32m[1mDEBUG[22m[39m[0m[0m	[37m$bunfs/root/pochi:104693[39m[0m[0m[1m[37m	MjpegToMp4[39m[22m[0m[0m	[ffmpeg] stderr: [libx264 @ 0x5bfb6e795ec0] i16 v,h,dc,p: 74% 23%  3%  0%
[37m2026-04-29 20:47:04.024[39m[0m[0m	[32m[1mDEBUG[22m[39m[0m[0m	[37m$bunfs/root/pochi:104693[39m[0m[0m[1m[37m	MjpegToMp4[39m[22m[0m[0m	[ffmpeg] stderr: [libx264 @ 0x5bfb6e795ec0] i8 v,h,dc,ddl,ddr,vr,hd,vl,hu: 15% 48% 27%  1%  1%  1%  1%  1%  5%
[37m2026-04-29 20:47:04.024[39m[0m[0m	[32m[1mDEBUG[22m[39m[0m[0m	[37m$bunfs/root/pochi:104693[39m[0m[0m[1m[37m	MjpegToMp4[39m[22m[0m[0m	[ffmpeg] stderr: [libx264 @ 0x5bfb6e795ec0] i4 v,h,dc,ddl,ddr,vr,hd,vl,hu: 24% 31% 21%  3%  3%  4%  5%  4%  6%
[37m2026-04-29 20:47:04.024[39m[0m[0m	[32m[1mDEBUG[22m[39m[0m[0m	[37m$bunfs/root/pochi:104693[39m[0m[0m[1m[37m	MjpegToMp4[39m[22m[0m[0m	[ffmpeg] stderr: [libx264 @ 0x5bfb6e795ec0] i8c dc,h,v,p: 87%  9%  3%  0%
[37m2026-04-29 20:47:04.026[39m[0m[0m	[32m[1mDEBUG[22m[39m[0m[0m	[37m$bunfs/root/pochi:104693[39m[0m[0m[1m[37m	MjpegToMp4[39m[22m[0m[0m	[ffmpeg] stderr: [libx264 @ 0x5bfb6e795ec0] Weighted P-Frames: Y:0.0% UV:0.0%
[37m2026-04-29 20:47:04.026[39m[0m[0m	[32m[1mDEBUG[22m[39m[0m[0m	[37m$bunfs/root/pochi:104693[39m[0m[0m[1m[37m	MjpegToMp4[39m[22m[0m[0m	[ffmpeg] stderr: [libx264 @ 0x5bfb6e795ec0] kb/s:16.15
[37m2026-04-29 20:47:04.034[39m[0m[0m	[32m[1mDEBUG[22m[39m[0m[0m	[37m$bunfs/root/pochi:104693[39m[0m[0m[1m[37m	MjpegToMp4[39m[22m[0m[0m	[ffmpeg] stderr: 
[37m2026-04-29 20:47:04.035[39m[0m[0m	[32m[1mDEBUG[22m[39m[0m[0m	[37mevents:98[39m[0m[0m[1m[37m	MjpegToMp4[39m[22m[0m[0m	[ffmpeg] end
[37m2026-04-29 20:47:14.294[39m[0m[0m	[32m[1mDEBUG[22m[39m[0m[0m	[37mnative:7[39m[0m[0m[1m[37m	Pochi[39m[22m[0m[0m	Task runner finished successfully.
[37m2026-04-29 20:47:14.295[39m[0m[0m	[32m[1mDEBUG[22m[39m[0m[0m	[37mnative:7[39m[0m[0m[1m[37m	Pochi[39m[22m[0m[0m	Shutting down...
[37m2026-04-29 20:47:14.325[39m[0m[0m	[32m[1mDEBUG[22m[39m[0m[0m	[37mnative:7[39m[0m[0m[1m[37m	Pochi[39m[22m[0m[0m	Shutdown completed. Process will exit.
[37m2026-04-29 20:47:14.327[39m[0m[0m	[32m[1mDEBUG[22m[39m[0m[0m	[37m[39m[0m[0m[1m[37m	Pochi[39m[22m[0m[0m	Process exiting with code 0
